<?xml version="1.0" standalone="no"?><!DOCTYPE svg PUBLIC "-//W3C//DTD SVG 1.1//EN" "http://www.w3.org/Graphics/SVG/1.1/DTD/svg11.dtd"><svg t="1675955987824" class="icon" viewBox="0 0 1024 1024" version="1.1" xmlns="http://www.w3.org/2000/svg" p-id="16566" width="13" height="13" xmlns:xlink="http://www.w3.org/1999/xlink"><path d="M763.50976 435.77344a27.7504 27.7504 0 0 0-27.81184 27.68384v251.392a97.11616 97.11616 0 0 1-194.2272 0V402.26816c0-65.29024-66.69824-116.4288-151.84896-116.4288S237.7728 336.97792 237.7728 402.26816V581.632a27.81184 27.81184 0 0 0 55.61856 0V402.26816c0-33.09568 44.06784-61.06112 96.2304-61.06112S485.85216 369.152 485.85216 402.26816v312.56064a152.73472 152.73472 0 0 0 305.46432 0v-251.392a27.74528 27.74528 0 0 0-27.80672-27.66336z" fill="#FD9A16" p-id="16567"></path><path d="M760.9088 478.51008A198.2976 198.2976 0 1 1 957.44 280.22272a197.632 197.632 0 0 1-196.5312 198.28736z m0-340.85888a142.57152 142.57152 0 1 0 141.312 142.5664 142.10048 142.10048 0 0 0-141.312-142.56128zM268.20608 947.2a198.2976 198.2976 0 1 1 196.54144-198.28736A197.632 197.632 0 0 1 268.20608 947.2z m0-340.85376a142.57152 142.57152 0 1 0 141.312 142.5664 142.10048 142.10048 0 0 0-141.312-142.58176z" fill="#2966C1" p-id="16568"></path></svg>